<?xml version="1.0" standalone="no"?><!DOCTYPE svg PUBLIC "-//W3C//DTD SVG 1.1//EN" "http://www.w3.org/Graphics/SVG/1.1/DTD/svg11.dtd"><svg t="1738508588200" class="icon" viewBox="0 0 1046 1024" version="1.1" xmlns="http://www.w3.org/2000/svg" p-id="10296" xmlns:xlink="http://www.w3.org/1999/xlink" width="100" height="100"><path d="M126.736773 890.937814c165.314618 165.314618 470.111032 173.908405 721.093357-64.684973 256.565714-274.743889 219.771954-545.551103 54.457337-710.865721s-472.954186-125.729164-687.117022 88.433672C-32.968726 479.349443-38.59071 725.623196 126.736773 890.937814z" fill="#F9C87D" p-id="10297"></path><path d="M55.747974 800.317101c177.536321 121.599515 455.239149 162.09838 719.15075-73.857683C1010.082889 470.369708 961.890784 240.524497 848.704946 74.064898c-28.495866-41.952605-348.112704-117.66284-529.341265 36.111917-28.959004 29.589387-59.178774 60.812622-90.787958 92.460402-37.089653 41.167843-72.365348 78.296091-104.990863 112.18237-185.64124 192.794153-96.204102 466.032843-67.836886 485.497514z" fill="#FAE06F" p-id="10298"></path><path d="M486.620906 50.946582Q209.895815 211.642682 113.717443 413.455165T44.323898 730.679122l-29.151978-76.971001q10.652179-294.864672 276.210493-519.744012 83.352016-68.08132 195.238493-83.017527z" fill="#FFFFFF" fill-opacity=".7" p-id="10299"></path><path d="M427.905271 1024c-120.750428 0-230.15397-43.393479-310.495588-123.735097-182.978195-182.96533-150.905873-439.981317 87.970534-705.269467 106.097249-106.122979 237.319747-173.676836 369.98312-190.787221 133.859813-17.251899 253.336611 18.898613 336.238354 101.851816 89.115514 89.102649 136.998861 204.153904 134.901874 323.965191-2.431476 135.326417-67.785426 275.438597-188.986127 405.24595-121.445136 115.398609-260.129305 180.212231-401.643764 187.956931-9.378549 0.514598-18.718503 0.771897-27.968403 0.771897zM639.482252 26.387391a474.909659 474.909659 0 0 0-60.748298 3.975269C451.821214 46.701148 326.06632 111.61769 224.497534 213.147881-3.27642 466.059949-35.670366 709.889361 136.050997 881.62359c200.821882 200.783287 511.934987 116.44067 702.696478-64.929407C1104.267194 532.340175 1040.945906 272.686874 892.960377 124.739939c-64.350484-64.324754-152.835615-98.352549-253.478125-98.352548z" fill="#520001" p-id="10300"></path><path d="M221.382274 769.417005a48.102051 57.725034 45 1 0 81.635526-81.635527 48.102051 57.725034 45 1 0-81.635526 81.635527Z" fill="#B9836D" p-id="10301"></path><path d="M221.382274 769.417005a48.102051 57.725034 45 1 0 81.635526-81.635527 48.102051 57.725034 45 1 0-81.635526 81.635527Z" fill="#AB644E" p-id="10302"></path><path d="M210.358953 760.01121c18.782828 18.795693 52.296025 15.7467 74.835419-6.792694s25.588387-56.052591 6.805559-74.835419-52.296025-15.7467-74.835419 6.805559-25.588387 56.039726-6.805559 74.822554z" fill="#B9836D" p-id="10303"></path><path d="M452.293327 519.261051a48.102051 57.725034 45 1 0 81.635526-81.635526 48.102051 57.725034 45 1 0-81.635526 81.635526Z" fill="#AB644E" p-id="10304"></path><path d="M441.25909 509.865106c18.795693 18.795693 52.296025 15.7467 74.835419-6.792694s25.588387-56.052591 6.805559-74.835418-52.28316-15.7467-74.835419 6.792694-25.588387 56.052591-6.805559 74.835418z" fill="#B9836D" p-id="10305"></path><path d="M721.671907 538.515802a48.102051 57.725034 45 1 0 81.635527-81.635526 48.102051 57.725034 45 1 0-81.635527 81.635526Z" fill="#AB644E" p-id="10306"></path><path d="M710.651159 529.111073c18.795693 18.782828 52.296025 15.7467 74.835419-6.805559s25.588387-56.039726 6.805559-74.835419-52.296025-15.733835-74.835419 6.805559-25.588387 56.052591-6.805559 74.835419z" fill="#B9836D" p-id="10307"></path><path d="M539.983041 702.009274a36.073322 43.290559 45 1 0 61.222096-61.222097 36.073322 43.290559 45 1 0-61.222096 61.222097Z" fill="#AB644E" p-id="10308"></path><path d="M531.725424 694.966018c14.087121 14.151446 39.21237 11.810025 56.12978-5.14598s19.194507-42.042659 5.14598-56.12978-39.21237-11.810025-56.116915 5.14598-19.245966 42.042659-5.158845 56.12978z" fill="#B9836D" p-id="10309"></path><path d="M636.203738 336.409425a36.073322 43.290559 45 1 0 61.222096-61.222096 36.073322 43.290559 45 1 0-61.222096 61.222096Z" fill="#AB644E" p-id="10310"></path><path d="M627.942391 329.369847c14.151446 14.087121 39.21237 11.810025 56.116915-5.145981s19.194507-42.029794 5.14598-56.116915-39.225235-11.810025-56.12978 5.14598-19.233101 42.029794-5.133115 56.116916z" fill="#B9836D" p-id="10311"></path><path d="M212.880271 490.345968a36.073322 43.290559 45 1 0 61.222097-61.222096 36.073322 43.290559 45 1 0-61.222097 61.222096Z" fill="#AB644E" p-id="10312"></path><path d="M204.60832 483.311848c14.151446 14.087121 39.225235 11.79716 56.12978-5.14598s19.194507-42.042659 5.145981-56.129781-39.21237-11.79716-56.116916 5.145981-19.245966 42.029794-5.158845 56.12978z" fill="#B9836D" p-id="10313"></path><path d="M319.81269 288.259799a24.057458 28.86895 45 1 0 40.82686-40.82686 24.057458 28.86895 45 1 0-40.82686 40.82686Z" fill="#AB644E" p-id="10314"></path><path d="M314.307755 283.557757c9.404279 9.391414 26.154445 7.87335 37.424142-3.396347s12.787761-28.019863 3.396347-37.411277-26.14158-7.87335-37.411277 3.396347-12.800626 28.019863-3.409212 37.411277z" fill="#B9836D" p-id="10315"></path><path d="M608.444358 153.57173a24.057458 28.86895 45 1 0 40.82686-40.82686 24.057458 28.86895 45 1 0-40.82686 40.82686Z" fill="#AB644E" p-id="10316"></path><path d="M602.945791 148.861722c9.391414 9.404279 26.14158 7.87335 37.411277-3.396347s12.864951-28.019863 3.409212-37.411277-26.154445-7.87335-37.424142 3.396347-12.787761 28.019863-3.396347 37.411277z" fill="#B9836D" p-id="10317"></path></svg>