<?xml version="1.0" standalone="no"?><!DOCTYPE svg PUBLIC "-//W3C//DTD SVG 1.1//EN" "http://www.w3.org/Graphics/SVG/1.1/DTD/svg11.dtd"><svg t="1738508204142" class="icon" viewBox="0 0 1024 1024" version="1.1" xmlns="http://www.w3.org/2000/svg" p-id="8419" xmlns:xlink="http://www.w3.org/1999/xlink" width="100" height="100"><path d="M206.2 328.1c9.9 0 18-8.1 18-18V306c0-9.9-8.1-18-18-18s-18 8.1-18 18v4.1c0 9.9 8.1 18 18 18zM817.8 716.7c-9.9 0-18 8.1-18 18v147c0 16.5-13.5 30-30 30H254.2c-16.5 0-30-13.5-30-30V363.9c0-9.9-8.1-18-18-18s-18 8.1-18 18v517.8c0 36.4 29.6 66 66 66h515.6c36.4 0 66-29.6 66-66v-147c0-10-8.1-18-18-18zM769.8 76.3H254.2c-36.4 0-66 29.6-66 66v105.6c0 9.9 8.1 18 18 18s18-8.1 18-18V142.3c0-16.5 13.5-30 30-30h515.6c16.5 0 30 13.5 30 30v519.3c0 9.9 8.1 18 18 18s18-8.1 18-18V142.3c0-36.4-29.6-66-66-66z" fill="#662F0A" p-id="8420"></path><path d="M242.2 651.2c0 9.9 8.1 18 18 18H494v210.2c0 9.9 8.1 18 18 18s18-8.1 18-18V669.2h231.7c9.9 0 18-8.1 18-18s-8.1-18-18-18H530V390.7h231.7c9.9 0 18-8.1 18-18s-8.1-18-18-18H530V157.5c0-9.9-8.1-18-18-18s-18 8.1-18 18v197.2H260.2c-9.9 0-18 8.1-18 18s8.1 18 18 18H494v242.5H260.2c-9.9 0-18 8.1-18 18z" fill="#662F0A" p-id="8421"></path><path d="M429.7 254.3c9.9 0 18-8.1 18-18v-50.9c0-23.2-18.8-42-42-42h-91.3c-23.2 0-42 18.8-42 42v120.7c0 9.9 8.1 18 18 18s18-8.1 18-18V185.4c0-3.3 2.7-6 6-6h91.3c3.3 0 6 2.7 6 6v50.9c0 9.9 8 18 18 18zM734.9 254.3c9.9 0 18-8.1 18-18v-50.9c0-23.2-18.8-42-42-42h-91.3c-23.2 0-42 18.8-42 42v120.7c0 9.9 8.1 18 18 18s18-8.1 18-18V185.4c0-3.3 2.7-6 6-6h91.3c3.3 0 6 2.7 6 6v50.9c0 9.9 8.1 18 18 18zM429.7 534.2c9.9 0 18-8.1 18-18v-50.9c0-23.2-18.8-42-42-42h-91.3c-23.2 0-42 18.8-42 42V586c0 9.9 8.1 18 18 18s18-8.1 18-18V465.3c0-3.3 2.7-6 6-6h91.3c3.3 0 6 2.7 6 6v50.9c0 9.9 8 18 18 18zM734.9 534.2c9.9 0 18-8.1 18-18v-50.9c0-23.2-18.8-42-42-42h-91.3c-23.2 0-42 18.8-42 42V586c0 9.9 8.1 18 18 18s18-8.1 18-18V465.3c0-3.3 2.7-6 6-6h91.3c3.3 0 6 2.7 6 6v50.9c0 9.9 8.1 18 18 18zM429.7 812.5c9.9 0 18-8.1 18-18v-50.9c0-23.2-18.8-42-42-42h-91.3c-23.2 0-42 18.8-42 42v120.7c0 9.9 8.1 18 18 18s18-8.1 18-18V743.7c0-3.3 2.7-6 6-6h91.3c3.3 0 6 2.7 6 6v50.9c0 9.9 8 17.9 18 17.9zM734.9 812.5c9.9 0 18-8.1 18-18v-50.9c0-23.2-18.8-42-42-42h-91.3c-23.2 0-42 18.8-42 42v120.7c0 9.9 8.1 18 18 18s18-8.1 18-18V743.7c0-3.3 2.7-6 6-6h91.3c3.3 0 6 2.7 6 6v50.9c0 9.9 8.1 17.9 18 17.9z" fill="#662F0A" p-id="8422"></path></svg>