<?xml version="1.0" standalone="no"?><!DOCTYPE svg PUBLIC "-//W3C//DTD SVG 1.1//EN" "http://www.w3.org/Graphics/SVG/1.1/DTD/svg11.dtd"><svg t="1738509344058" class="icon" viewBox="0 0 1026 1024" version="1.1" xmlns="http://www.w3.org/2000/svg" p-id="14637" xmlns:xlink="http://www.w3.org/1999/xlink" width="100" height="100"><path d="M917.491783 350.585804a8.453984 7.535723 90 1 0 15.071447 0 8.453984 7.535723 90 1 0-15.071447 0Z" fill="#847E7A" p-id="14638"></path><path d="M925.326939 349.038735l-1.586993 1.776634-16.388951-18.375187 1.586994-1.776634 16.38895 18.375187z" fill="#847E7A" p-id="14639"></path><path d="M2.295651 2.934441h1022.063668v1021.065559H2.295651z" fill="#B4DEEF" p-id="14640"></path><path d="M855.087551 381.999391a8.453984 7.535723 82.49 1 0 14.942165-1.969826 8.453984 7.535723 82.49 1 0-14.942165 1.969826Z" fill="#847E7A" p-id="14641"></path><path d="M864.56206 382.225861l-1.636899 1.676823-15.999688-19.323391 1.636899-1.676823 15.999688 19.323391z" fill="#847E7A" p-id="14642"></path><path d="M873.878828 370.995038a8.453984 7.535723 82.49 1 0 14.942165-1.969826 8.453984 7.535723 82.49 1 0-14.942165 1.969826Z" fill="#847E7A" p-id="14643"></path><path d="M880.451956 366.296041l-1.477201 1.856483-17.556738-17.546758 1.46722-1.856482 17.566719 17.546757z" fill="#847E7A" p-id="14644"></path><path d="M887.456016 356.250943a8.453984 7.535723 82.49 1 0 14.942165-1.969827 8.453984 7.535723 82.49 1 0-14.942165 1.969827Z" fill="#847E7A" p-id="14645"></path><path d="M895.114178 352.502174l-1.46722 1.846501-17.556738-17.546757 1.46722-1.846502 17.556738 17.546758z" fill="#847E7A" p-id="14646"></path><path d="M900.671054 340.465986a8.453984 7.535723 82.49 1 0 14.942165-1.969826 8.453984 7.535723 82.49 1 0-14.942165 1.969826Z" fill="#847E7A" p-id="14647"></path><path d="M907.929898 337.879876l-1.477201 1.846502-17.556738-17.536776 1.46722-1.856483 17.566719 17.546757z" fill="#847E7A" p-id="14648"></path><path d="M914.504703 324.729615a8.453984 7.535723 82.49 1 0 14.942164-1.969826 8.453984 7.535723 82.49 1 0-14.942164 1.969826Z" fill="#847E7A" p-id="14649"></path><path d="M919.068795 319.33501l-1.46722 1.846502-17.556738-17.546758 1.46722-1.846501 17.556738 17.546757z" fill="#847E7A" p-id="14650"></path><path d="M927.053394 309.231873a8.453984 7.535723 72.75 1 0 14.393532-4.469311 8.453984 7.535723 72.75 1 0-14.393532 4.469311Z" fill="#847E7A" p-id="14651"></path><path d="M930.636879 303.055851l-1.137844 2.076067-20.271595-14.322865 1.127863-2.076067 20.281576 14.322865z" fill="#847E7A" p-id="14652"></path><path d="M928.600737 214.593446c-40.553171-46.990974-53.119364 37.508938-53.119364 37.508938s-93.961986 18.774431-79.53931 45.773281-9.741544 39.415326-9.741544 39.415327l31.480359 66.0848C894.76484 335.005322 969.163889 261.554477 928.600737 214.593446z" fill="" p-id="14653"></path><path d="M469.470573 563.602238c-43.228103-28.126713-23.465544-68.250697-23.465543-68.250697s57.271497-55.664542 5.210129-48.677778-77.573035 78.421428-77.573036 78.421428c-30.57208 28.995068-60.944539 25.851024-60.944538 25.851024-97.415443 3.054214-125.951381 61.014406-125.951382 61.014406-39.924362 70.676102 36.15151 174.389613 36.15151 174.389614-3.104119-11.318557 77.014094 239.146929 185.728133 67.562002S455.98612 752.943525 557.703413 714.646081s61.583328-102.805232 59.696903-93.423008-31.170946 21.299647-31.170946 21.299648C524.057157 656.136928 532.511141 590.880558 532.511141 590.880558L841.40593 352.851512l7.984873 15.450728-27.947054-60.665068z" fill="" p-id="14654"></path><path d="M460.65727 583.893795c-40.862585-26.210344-22.098134-63.739244-22.098134-63.739244s54.297132-52.111274 4.990545-45.493811-73.540675 73.40094-73.540675 73.40094c-28.945162 27.148566-57.710665 24.25405-57.710665 24.25405-92.195333 2.994327-119.303975 57.211611-119.303975 57.211611-37.928144 66.104762 33.935708 162.901378 33.935708 162.901378-2.92446-10.569975 72.502641 223.346862 175.667193 62.88087s45.004737-94.441078 141.372166-130.353042 58.399361-96.147845 56.592783-87.394428-29.534047 19.962181-29.534047 19.962181c-58.888434 12.785777-50.743864-48.188705-50.743864-48.188705l292.725423-222.947619 7.555685 14.4626-26.390003-56.642689z" fill="#847E7A" p-id="14655"></path><path d="M918.769363 228.926292c-35.303117-38.926253-46.811315 31.600133-46.811315 31.600133s-82.533637 16.219272-70.027331 38.656763-8.773379 32.937599-8.773378 32.937599l27.228415 54.955884c68.011151-57.491081 133.676745-119.184202 98.383609-158.150379z" fill="#FFFFFF" p-id="14656"></path><path d="M366.871498 677.594671a60.884652 33.935708 54.3 1 0 55.117259-39.605768 60.884652 33.935708 54.3 1 0-55.117259 39.605768Z" fill="#FFFFFF" p-id="14657"></path><path d="M806.232567 368.217401l1.455243 2.026161L282.647515 747.523793l-1.456241-2.026162zM810.528429 374.213042l1.456241 2.026161-525.041293 377.280231-1.455243-2.026161zM813.98488 380.823518l1.456241 2.026161L290.399828 760.12991l-1.455243-2.026161zM798.325547 364.561327l1.456241 2.026162-525.040294 377.28023-1.45724-2.026161zM793.633437 358.58465l1.457239 2.026162L270.048385 737.890044l-1.456241-2.026161zM792.183184 350.295355l1.456241 2.026161-525.040294 377.280231-1.45724-2.026162z" fill="" p-id="14658"></path><path d="M785.120565 334.002222l7.497795-3.593192 36.666534 76.530011-7.497795 3.592195z" fill="" p-id="14659"></path><path d="M248.349494 718.753299l23.096244-11.067033 30.487241 63.629452-23.097242 11.067033z" fill="#302E2E" p-id="14660"></path></svg>